<?xml version="1.0" encoding="UTF-8" standalone="no"?> <svg width="64" height="64" viewBox="0 0 64 64" fill="#fff" xmlns="http://www.w3.org/2000/svg">
<path d="M32 2.5C24.1786 2.50794 16.6797 5.61852 11.1491 11.1491C5.61852 16.6797 2.50794 24.1786 2.5 32C4.12 71.14 59.89 71.12 61.5 32C61.4921 24.1786 58.3815 16.6797 52.8509 11.1491C47.3203 5.61852 39.8214 2.50794 32 2.5V2.5ZM32 28.12C30.9354 28.1187 29.8816 27.9075 28.8987 27.4986C27.9158 27.0897 27.0232 26.4911 26.2718 25.737C25.5205 24.9828 24.9251 24.088 24.5199 23.1036C24.1146 22.1192 23.9074 21.0645 23.91 20C24.32 9.28 39.69 9.28 40.09 20C40.0926 21.0645 39.8854 22.1192 39.4801 23.1036C39.0749 24.088 38.4795 24.9828 37.7282 25.737C36.9768 26.4911 36.0842 27.0897 35.1013 27.4986C34.1184 27.9075 33.0646 28.1187 32 28.12V28.12ZM49.71 48.85C49.71 51.4 49.16 51.85 49.05 51.97C48.37 52.42 45.84 51.34 43.82 50.48C40.56 49.08 36.5 47.35 32 47.35C27.5 47.35 23.44 49.08 20.18 50.48C18.18 51.34 15.63 52.42 14.95 51.97C14.84 51.9 14.29 51.4 14.29 48.85C15.27 25.36 48.74 25.37 49.71 48.85ZM18.08 54.54C31.07 49 33 49 45.92 54.54C38 59.76 26.05 59.76 18.08 54.54ZM52.69 48.54C52.6216 44.209 51.1977 40.0084 48.6183 36.5286C46.039 33.0488 42.4339 30.4648 38.31 29.14C47.14 23 42.87 9 32 8.94C21.13 8.88 16.86 23 25.69 29.14C21.5677 30.4643 17.9638 33.0467 15.3846 36.5245C12.8053 40.0023 11.3804 44.2007 11.31 48.53C-2.52 31.54 9.9 5.4 32 5.5C54.1 5.4 66.52 31.54 52.69 48.53V48.54Z" fill="#fff"/>
</svg>
